<?xml version="1.0" encoding="UTF-8"?>
<svg width="993px" height="198px" viewBox="0 0 993 198" version="1.1" xmlns="http://www.w3.org/2000/svg" xmlns:xlink="http://www.w3.org/1999/xlink">
    <title>切片</title>
    <defs>
        <path d="M0,0 L64.0382979,0 C106.730496,0 144.633688,0.937615812 159.747872,2.81284744 C174.862057,4.68807906 187.182624,9.47807288 196.709574,17.1828289 C206.236525,24.8875849 211,37.1785053 211,54.0555899 C211,69.4651019 207.633333,79.8196418 200.9,85.1192094 C194.166667,90.418777 180.914894,93.5985176 161.144681,94.6584311 C179.052482,97.1859172 191.086525,100.569487 197.246809,104.809141 C203.407092,109.048796 207.239362,112.941939 208.743617,116.488573 C210.247872,120.035207 211,129.798641 211,145.778876 L211,198 L117.976596,198 L117.976596,132.20383 C117.976596,121.604694 116.508156,115.041384 113.571277,112.513897 C110.634397,109.986411 102.934043,108.722668 90.4702128,108.722668 L90.4702128,198 L0,198 L0,0 Z M90.4702128,33.876467 L90.4702128,77.9036442 C100.641844,77.9036442 107.769149,77.1087091 111.852128,75.5188388 C115.935106,73.9289685 117.976596,68.7720815 117.976596,60.0481779 L117.976596,49.1636813 C117.976596,42.8857319 116.006738,38.7683755 112.067021,36.8116121 C108.127305,34.8548487 100.928369,33.876467 90.4702128,33.876467 Z" id="path-1"></path>
    </defs>
    <g id="页面-1" stroke="none" stroke-width="1" fill="none" fill-rule="evenodd">
        <g id="logo" fill-rule="nonzero">
            <path d="M414.48832,198 C415.84529,198 416.93087,196.91358 416.93087,195.555556 L416.93087,114.888889 C416.93087,113.530864 415.84529,112.444444 414.48832,112.444444 L369.165319,112.444444 C368.893924,112.444444 368.079739,112.444444 367.808344,111.901235 C367.536948,111.358025 367.808344,110.814815 368.079739,110.271605 L416.38808,5.160494 C418.01645,1.62963 416.11669,0 413.94553,0 L224.511684,0 C223.154708,0 222.069127,1.358025 222.069127,2.716049 L222.069127,83.382716 C222.069127,84.740741 223.154708,85.82716 224.511684,85.82716 L270.377471,85.82716 C270.648866,85.82716 271.463052,85.82716 271.734447,86.37037 C272.005842,86.91358 271.734447,87.45679 271.463052,88 L222.611918,193.111111 C220.983547,196.37037 222.883313,198 225.054474,198 L414.48832,198 Z M534,198 C589.26415,198 635,154.271605 635,99.679012 L635,2.716049 C635,1.08642 633.91105,0 632.27763,0 L543.5283,0 C542.16712,0 541.07817,1.08642 541.07817,2.716049 L541.07817,98.049383 C541.07817,102.123457 537.81132,105.111111 534,105.111111 C530.18868,105.111111 526.92183,102.123457 526.92183,98.049383 L526.92183,2.716049 C526.92183,1.08642 525.83288,0 524.4717,0 L435.72237,0 C434.08895,0 433,1.08642 433,2.716049 L433,99.679012 C433,154.271605 478.73585,198 534,198 Z M748.20601,198 C749.83318,198 750.91796,196.91358 750.91796,195.283951 L750.91796,130.37037 L758.51139,130.37037 L785.63081,195.283951 C786.44439,196.91358 786.98678,198 789.15633,198 L881.09115,198 C882.98951,198 883.5319,197.185185 882.44712,194.740741 L842.31039,99.407407 L882.44712,3.259259 C883.5319,0.814815 882.98951,0 881.09115,0 L789.42753,0 C787.25797,0 786.71559,1.08642 785.902,2.716049 L757.969,69.530864 L750.91796,69.530864 L750.91796,2.716049 C750.91796,1.358025 749.83318,0 748.20601,0 L658.71194,0 C657.08478,0 656,0.814815 656,2.716049 L656,195.283951 C656,196.91358 657.08478,198 658.71194,198 L748.20601,198 Z M990.28571,198 C991.64286,198 993,196.913565 993,195.283912 L993,2.714552 C993,1.356508 991.64286,0 990.28571,0 L900.71429,0 C899.35714,0 898,1.356508 898,2.714552 L898,195.283912 C898,196.913565 899.35714,198 900.71429,198 L990.28571,198 Z" id="ZUKI" fill="#B7323D"></path>
            <g id="形状">
                <use fill="#FFFFFF" xlink:href="#path-1"></use>
                <use fill="#B7323D" xlink:href="#path-1"></use>
            </g>
        </g>
    </g>
</svg>